<svg width="269" height="245" viewBox="0 0 269 245" fill="none" xmlns="http://www.w3.org/2000/svg">
<path d="M0 47.8147C0 47.8147 5.1405 21.3438 84.6017 5.41489C164.063 -10.514 178.43 13.7719 178.43 13.7719C178.43 13.7719 179.504 18.0451 180.858 25.2736L180.887 25.4273C180.248 25.3422 179.592 25.2562 178.919 25.1692C134.649 19.446 106.799 22.7448 89.0835 28.8431C80.1376 31.9226 73.7305 35.735 69.1961 39.4763C66.9402 41.3377 65.2008 43.1383 63.877 44.747C63.2173 45.5488 62.667 46.2952 62.2116 46.9683C61.9841 47.3045 61.7808 47.6216 61.5999 47.9173C61.5094 48.0651 61.4246 48.2074 61.3451 48.344C61.3225 48.3828 61.3004 48.4211 61.2787 48.4589C61.2622 48.4877 61.2459 48.5163 61.2299 48.5445C61.2114 48.5772 61.1932 48.6095 61.1753 48.6414L61.1487 48.689L61.1226 48.7361L59.6553 51.3914L59.0565 54.3804L59.0537 54.3941L59.0409 54.4587L59.0201 54.5644L59.0133 54.5993C58.991 54.7136 58.961 54.8687 58.924 55.0636C58.8499 55.4532 58.7478 56.0016 58.6231 56.6989C58.3736 58.093 58.0331 60.0846 57.6453 62.5931C56.8705 67.6049 55.9021 74.7094 55.0944 83.2573C54.8775 85.553 54.6712 87.9618 54.4832 90.4706C48.8405 94.4321 45.6963 101.557 47.0293 108.889C47.851 113.41 50.2322 117.228 53.4973 119.871C53.586 128.719 54.0491 138.017 55.0705 147.441C56.2027 157.887 58.0518 168.787 60.9706 179.563C10.9101 143.462 0 47.8147 0 47.8147Z" fill="black" fill-opacity="0.5"/>
<path fill-rule="evenodd" clip-rule="evenodd" d="M84.8032 190.76L84.8044 190.761C75.9086 169.235 72.8748 144.247 72.4774 121.804C72.2701 110.095 72.7803 99.0789 73.5501 89.6076C75.0756 70.8378 77.6205 58.1352 77.6205 58.1352C77.6205 58.1352 77.7365 57.9251 78.0132 57.552C77.736 57.9255 77.6196 58.1358 77.6196 58.1358C77.6196 58.1358 75.0749 70.8379 73.5493 89.6071C72.7795 99.0787 72.2693 110.095 72.4766 121.804C72.8739 144.247 75.9077 169.234 84.8032 190.76ZM184.029 45.2683C182.654 45.0627 181.239 44.8596 179.781 44.6594C178.736 44.5154 177.679 44.3743 176.61 44.236C147.69 40.4972 126.998 40.8968 112.281 43.0565C126.998 40.8971 147.689 40.4979 176.609 44.2366C177.688 44.3761 178.745 44.517 179.781 44.6594C181.22 44.8576 182.636 45.0612 184.029 45.2698L184.029 45.2683Z" fill="black"/>
<path fill-rule="evenodd" clip-rule="evenodd" d="M179.781 44.6594C178.745 44.517 177.688 44.3761 176.609 44.2366C147.689 40.4979 126.998 40.8971 112.281 43.0565C110.386 43.3345 108.591 43.6416 106.889 43.9729C105.077 44.3256 103.372 44.7058 101.768 45.1071C100.027 45.5428 98.4041 46.0035 96.8933 46.4813C95.2185 47.011 93.6809 47.5619 92.2704 48.123C91.5292 48.4179 90.8231 48.7157 90.1505 49.0148C89.4776 49.314 88.8384 49.6146 88.2313 49.915C87.6398 50.2076 87.0789 50.5 86.5472 50.7908C85.8022 51.1982 85.1145 51.6023 84.4804 51.9993C84.0547 52.2657 83.6531 52.529 83.2746 52.7878C82.8934 53.0483 82.5356 53.3044 82.1999 53.5547C81.8638 53.8053 81.55 54.0502 81.2572 54.2882C80.9143 54.5668 80.6003 54.8359 80.3133 55.0936C80.122 55.2652 79.9428 55.4318 79.7749 55.5927C79.6156 55.7454 79.4666 55.893 79.3274 56.035C79.2106 56.1543 79.1007 56.2695 78.9974 56.3805C78.7411 56.6562 78.5257 56.9054 78.3473 57.1239C78.3006 57.1811 78.2564 57.2362 78.2146 57.2891C78.1758 57.3384 78.139 57.3857 78.1043 57.4311C78.0722 57.4731 78.0419 57.5135 78.0132 57.552C77.7365 57.9251 77.6205 58.1352 77.6205 58.1352C77.6205 58.1352 75.0756 70.8378 73.5501 89.6076C72.7803 99.0789 72.2701 110.095 72.4774 121.804C72.8748 144.247 75.9086 169.235 84.8044 190.761C91.4943 206.949 101.5 221.18 116.192 230.9C125.541 237.085 136.788 241.443 150.287 243.316C151.201 243.443 152.107 243.556 153.007 243.655C257.277 255.18 268.423 84.6129 268.423 84.6129C268.423 84.6129 264.287 66.1951 220.225 53.0605C211.224 50.3775 200.557 47.9149 187.919 45.8748C186.643 45.6688 185.346 45.467 184.029 45.2698C182.636 45.0612 181.22 44.8576 179.781 44.6594ZM120.853 157.621C131.204 159.057 140.731 151.626 142.133 141.022C143.535 130.418 136.281 120.658 125.931 119.221C115.58 117.785 106.053 125.217 104.651 135.821C103.249 146.424 110.503 156.185 120.853 157.621ZM210.74 135.637L205.564 124.693C204.477 122.393 201.393 121.965 199.748 123.886L191.917 133.025C191.367 133.666 190.603 134.084 189.767 134.202L178.816 135.749L177.886 135.88C175.436 136.226 174.126 138.947 175.374 141.098L176.301 142.695L181.559 151.759C181.975 152.476 182.125 153.317 181.983 154.131L179.863 166.262C179.43 168.739 181.669 170.867 184.113 170.302L195.668 167.629C196.503 167.436 197.382 167.558 198.138 167.972L208.357 173.574L208.582 173.697C210.791 174.908 213.502 173.467 213.728 170.962L214.835 158.69C214.909 157.866 215.272 157.097 215.86 156.519L221.601 150.869L224.59 147.927C226.351 146.194 225.795 143.215 223.523 142.213L221.342 141.252L219.723 140.538L212.507 137.358C211.731 137.016 211.103 136.404 210.74 135.637Z" fill="black"/>
</svg>
